<?xml version="1.0" encoding="utf-8"?>
<!-- Generator: Adobe Illustrator 28.0.0, SVG Export Plug-In . SVG Version: 6.00 Build 0)  -->
<svg version="1.1" id="Layer_1" xmlns="http://www.w3.org/2000/svg" xmlns:xlink="http://www.w3.org/1999/xlink" x="0px" y="0px"
	 viewBox="0 0 150 150" style="enable-background:new 0 0 150 150;" xml:space="preserve">
<style type="text/css">
	.st0{fill:#2699FB;}
</style>
<path class="st0" d="M133.58,104.25c-3.23,7.18-4.79,10.39-8.95,16.73c-5.82,8.86-14.04,19.92-24.19,19.99
	c-9.04,0.08-11.37-5.89-23.64-5.79c-12.26,0.06-14.81,5.91-23.86,5.81c-10.16-0.09-17.93-10.05-23.75-18.9
	C12.9,97.29,11.18,68.2,21.25,52.73c7.13-10.97,18.39-17.41,28.97-17.41c10.78,0,17.55,5.92,26.46,5.92
	c8.65,0,13.91-5.93,26.38-5.93c9.42,0,19.38,5.13,26.51,13.99C106.27,62.07,110.05,95.34,133.58,104.25z M93.59,25.41
	c4.54-5.82,7.98-14.04,6.73-22.41c-7.39,0.5-16.04,5.23-21.09,11.34c-4.58,5.58-8.38,13.85-6.9,21.86
	C80.39,36.46,88.75,31.64,93.59,25.41z"/>
</svg>
