<?xml version="1.0" encoding="utf-8"?>
<!-- Generator: Adobe Illustrator 28.0.0, SVG Export Plug-In . SVG Version: 6.00 Build 0)  -->
<svg version="1.1" id="Layer_1" xmlns="http://www.w3.org/2000/svg" xmlns:xlink="http://www.w3.org/1999/xlink" x="0px" y="0px"
	 viewBox="0 0 144 144" style="enable-background:new 0 0 144 144;" xml:space="preserve">
<style type="text/css">
	.st0{fill:#2699FB;}
	.st1{display:none;fill:#FF3D00;}
	.st2{display:none;fill:#4CAF50;}
	.st3{display:none;fill:#1976D2;}
</style>
<path class="st0" d="M130.83,60.25H126v0H72V84h33.91c-4.95,13.97-18.24,24-33.91,24c-19.88,0-36-16.12-36-36s16.12-36,36-36
	c9.18,0,17.53,3.46,23.88,9.12l16.97-16.97C102.14,18.16,87.8,12,72,12c-33.14,0-60,26.86-60,60s26.86,60,60,60s60-26.87,60-60
	C132,67.98,131.59,64.05,130.83,60.25z"/>
<path class="st1" d="M18.92,44.07l19.71,14.46C43.97,45.32,56.88,36,72,36c9.18,0,17.53,3.46,23.88,9.12l16.97-16.97
	C102.14,18.16,87.8,12,72,12C48.95,12,28.97,25.01,18.92,44.07z"/>
<path class="st2" d="M72,132c15.5,0,29.58-5.93,40.23-15.58l-18.57-15.71C87.63,105.27,80.15,108,72,108
	c-15.61,0-28.86-9.95-33.85-23.84L18.59,99.24C28.51,118.67,48.68,132,72,132z"/>
<path class="st3" d="M130.83,60.25H126V60H72v24h33.91c-2.38,6.71-6.69,12.5-12.26,16.71c0,0,0.01,0,0.01-0.01l18.57,15.71
	C110.91,117.62,132,102,132,72C132,67.98,131.59,64.05,130.83,60.25z"/>
</svg>
